<?xml version="1.0" encoding="UTF-8"?>
<!--Generator: Apple Native CoreSVG 326-->
<!DOCTYPE svg
PUBLIC "-//W3C//DTD SVG 1.1//EN"
       "https://www.w3.org/Graphics/SVG/1.1/DTD/svg11.dtd">
<svg version="1.1" xmlns="http://www.w3.org/2000/svg" xmlns:xlink="http://www.w3.org/1999/xlink" viewBox="0 0 41.0781 40.7969">
 <g>
  <rect height="40.7969" opacity="0" width="41.0781" x="0" y="0"/>
  <path d="M20.3438 40.7031C31.5781 40.7031 40.7031 31.5938 40.7031 20.3594C40.7031 9.125 31.5781 0 20.3438 0C9.10938 0 0 9.125 0 20.3594C0 31.5938 9.10938 40.7031 20.3438 40.7031ZM20.3438 37.7969C10.7031 37.7969 2.90625 30 2.90625 20.3594C2.90625 10.7188 10.7031 2.92188 20.3438 2.92188C29.9844 2.92188 37.7812 10.7188 37.7812 20.3594C37.7812 30 29.9844 37.7969 20.3438 37.7969Z" fill="#ff9f0a" fill-opacity="0.5"/>
  <path d="M20.3438 30.3281C21.25 30.3281 21.75 29.7812 21.7344 28.8438L21.5781 22.5781L27.2188 26.2031C27.5 26.375 27.7812 26.4688 28.1406 26.4688C28.8438 26.4688 29.5 25.9219 29.5 25.0312C29.5 24.4688 29.25 24.0781 28.6719 23.7656L22.8125 20.4219L28.6719 17.1094C29.25 16.7812 29.5 16.3906 29.5 15.8281C29.5 14.9375 28.8594 14.375 28.1406 14.375C27.7969 14.375 27.4844 14.4688 27.2188 14.6562L21.5781 18.2188L21.7344 11.8281C21.75 10.8906 21.25 10.3438 20.3438 10.3438C19.4375 10.3438 18.875 10.9219 18.8906 11.8281L19.0469 18.2188L13.4375 14.7031C13.1719 14.5312 12.875 14.4219 12.5312 14.4219C11.8125 14.4219 11.1406 14.9688 11.1406 15.875C11.1406 16.4375 11.4219 16.8281 11.9688 17.1406L17.7812 20.4219L11.9844 23.7344C11.4219 24.0469 11.1562 24.4531 11.1562 25.0156C11.1562 25.8906 11.7969 26.4375 12.5156 26.4375C12.8594 26.4375 13.1562 26.3281 13.4375 26.1719L19.0469 22.5781L18.8906 28.8438C18.875 29.75 19.4375 30.3281 20.3438 30.3281Z" fill="#ff9f0a"/>
 </g>
</svg>
